<mxfile host="app.diagrams.net" agent="Mozilla/5.0 (Windows NT 10.0; Win64; x64) AppleWebKit/537.36 (KHTML, like Gecko) Chrome/126.0.0.0 Safari/537.36" version="24.7.4">
  <diagram name="Page-1" id="8HsSoOZUqBJPS6YxjsfK">
    <mxGraphModel dx="883" dy="446" grid="0" gridSize="10" guides="1" tooltips="1" connect="1" arrows="1" fold="1" page="1" pageScale="1" pageWidth="850" pageHeight="1100" math="0" shadow="0">
      <root>
        <mxCell id="0" />
        <mxCell id="1" parent="0" />
        <mxCell id="eEODXBK2ljjGyrrpDSJA-2" value="" style="sketch=0;pointerEvents=1;shadow=0;dashed=0;html=1;strokeColor=none;fillColor=#000005;labelPosition=center;verticalLabelPosition=bottom;verticalAlign=top;outlineConnect=0;align=center;shape=mxgraph.office.users.user;" parent="1" vertex="1">
          <mxGeometry x="140" y="240" width="80" height="80" as="geometry" />
        </mxCell>
        <mxCell id="eEODXBK2ljjGyrrpDSJA-13" style="edgeStyle=orthogonalEdgeStyle;rounded=0;orthogonalLoop=1;jettySize=auto;html=1;" parent="1" source="eEODXBK2ljjGyrrpDSJA-4" target="eEODXBK2ljjGyrrpDSJA-5" edge="1">
          <mxGeometry relative="1" as="geometry" />
        </mxCell>
        <mxCell id="eEODXBK2ljjGyrrpDSJA-15" style="edgeStyle=orthogonalEdgeStyle;rounded=0;orthogonalLoop=1;jettySize=auto;html=1;" parent="1" source="eEODXBK2ljjGyrrpDSJA-4" target="eEODXBK2ljjGyrrpDSJA-2" edge="1">
          <mxGeometry relative="1" as="geometry">
            <Array as="points">
              <mxPoint x="290" y="280" />
              <mxPoint x="290" y="280" />
            </Array>
          </mxGeometry>
        </mxCell>
        <mxCell id="eEODXBK2ljjGyrrpDSJA-4" value="" style="verticalLabelPosition=bottom;html=1;verticalAlign=top;align=center;strokeColor=none;fillColor=#000203;shape=mxgraph.azure.computer;pointerEvents=1;" parent="1" vertex="1">
          <mxGeometry x="370" y="240" width="80" height="80" as="geometry" />
        </mxCell>
        <mxCell id="eEODXBK2ljjGyrrpDSJA-5" value="" style="sketch=0;outlineConnect=0;fontColor=#232F3E;gradientColor=none;fillColor=#000005;strokeColor=none;dashed=0;verticalLabelPosition=bottom;verticalAlign=top;align=center;html=1;fontSize=12;fontStyle=0;aspect=fixed;pointerEvents=1;shape=mxgraph.aws4.sagemaker_model;" parent="1" vertex="1">
          <mxGeometry x="600" y="241" width="78" height="78" as="geometry" />
        </mxCell>
        <mxCell id="eEODXBK2ljjGyrrpDSJA-6" style="edgeStyle=orthogonalEdgeStyle;rounded=0;orthogonalLoop=1;jettySize=auto;html=1;" parent="1" source="eEODXBK2ljjGyrrpDSJA-5" edge="1">
          <mxGeometry relative="1" as="geometry">
            <mxPoint x="450" y="290" as="targetPoint" />
            <Array as="points">
              <mxPoint x="450" y="290" />
            </Array>
          </mxGeometry>
        </mxCell>
        <mxCell id="eEODXBK2ljjGyrrpDSJA-11" value="" style="edgeStyle=orthogonalEdgeStyle;rounded=0;orthogonalLoop=1;jettySize=auto;html=1;" parent="1" source="eEODXBK2ljjGyrrpDSJA-10" target="eEODXBK2ljjGyrrpDSJA-4" edge="1">
          <mxGeometry relative="1" as="geometry" />
        </mxCell>
        <mxCell id="eEODXBK2ljjGyrrpDSJA-10" value="" style="shape=image;verticalLabelPosition=bottom;labelBackgroundColor=default;verticalAlign=top;aspect=fixed;imageAspect=0;image=data:image/webp,UklGRkZCAABXRUJQVlA4TDlCAAAv/8F/EGdAIGkz3vHtn+WrQSBpM97x7Z/lI5C0Ge/49s/yKWgjSU0dGmD4DwDa8jb7X0lWfcBXf5IHPHWBABSa9/9/7LatXgOABUpy70Cp1G1wtwkt4F7EBd27TTs94YLpjQumNy4g94IF5V6wEGmlCrdR5RadlQmQAOb3T/3m951yCnCSXUT/ZdG2UjfQnXenTYkiXFAx3wAAAAAAAAAAAAAAAAAAAAAAAAAAAAAAAAAAAAAAAAAAAAAAAAAAAAAAAAAAAAAAAAAAAAAAAAAAAAAAAAAAAAAAAAAAAAAAAAAAAAAAAAAAAAAAAAAAAAAAAAAAAAAAAAAAAAAAAAAAAAAAAAAAAAAAAAAAAAAAAAAAAAAAAAAAAAAAAAAAAAAAAAAAAAAAAAAAAAAAAAAAAAAAAAAAAAAAAAAAAAAAAAAAAAAAAAAAAAAAAAAAAAAAAAAAAAAAAAAAAAAAAAAAAAAAAAAAAAAAAAAAAAAAAAAAAAAAAAAAAAAAAAAAAAAAAAAAAAAAAAAAAAAAAAAAAAAAAAAAAAAAAAAAAAAAAAAAAAAAAAAAAAAAAAAAAAAAAAAAAAAAAAAAAAAAAAAAAAAAAAAAAAAAAAAAAAAAAAAAAAAAAAAAAAAAAAAAAAAAAAAAAAAAAAAAAAAAAAAAAAAAAAAAAAAAAAAAAAAAAAAAAAAAAAAAAAAAAAAAAAAAAAAAAAAAAAAAAAAAAAAAAAAAAAAAAAAAAAAAAAAAAAAAAAAAAAAAAAAAAAAAAAAAAAAAAAAAAAAAAAAAAAAAAAAAAAAAAAAAAAAAAAAAAAAAAAAAAAAAAAAAAAAAAAAAAAAAAAAAAAAAAAAAAAAAAAAAAAAAAAAAAAAAAAAAAAAAAAAAAAAAAAAAAAAAAAAAAAAAAAAAAAAAAAAAAAAAAAAAAAAAAAAAAAAAAAAAAAAAAAAAAAAAAAAAAAAAAAAAAAAAAAAAAAAAAAAAAAAAAAAAAAAAAAAAAAAAAAAAAAAAAAAAAAAAAAAAAAAAAAAAAAAAAAAAAAAAAAAAAAAAAAAAAAAAAAAAAAAAAAAAAAAAAAAAAAAAAAAAAAAAAAAAAAAAAAAAAAAAAAAAAAAAAAAAAAAAAAAAAAAAAAAAAAAAAAAAAAAAAAAAAAAAAAAAAAAAAAAAAAAAAAAAAAAAAAAAAAAAAAAAAAAAAAAAAAAAAAAAAAAAAAAAAAAAAAAAAAAAAAAAAAAAAAAAAAAAAAAAAAAAAAAAAAAAAAAAAAAAAAAAAAAAAAAAAAAAAAAAAAAAAAAAAAAAAAAAAAAAAAAAAAAAAAAAAAAAAAAAAAAAAAAAAAAAAAAAAAAAAAAAAAAAAAAAAAAAAAAAAAAAAAAAAAAAAAAAAAAAAAAAAAAAAAAAAAAAAAAAAAAAAAAAAAAAAAAAAAAAAAAAAAAAAAAAAAAAAAAAAAAAAAAAAAAAAAAAAAAAAAAAAAAAAAAAAAAAAAAAAAAAAAAAAAAAAAAAAAAAAAAAAAAAAAAAAAAAAAAAAAAAAAAAAAAAAAAAAAAAAAAAAAAAAAAAAAAAAAAAAAAAAAAAAAAAAAAAAAAAAAAAAAAAAAAAAAAAAAAAAAAAAAAAAAAAAAAAAAAAAAAAAAAAAAAAAAAAAAAAAAAAAAAAAAAAAAAAAAAAAAAAAAAAAAAAAAAAAAAAAAAAAAAAAAAAAAAAAAAAAAAAAAAAAAAAAAAAAAAAAAAAAAAAAAAAAAAAAAAAAAAAAAAAAAAAAAAAAAAAAAAAAAAAAAAAAAAAAAAAAAAAAAAAAAAAAAAAAAAAAAAAAAAAAAAAAAAAAAAAAAAAAAAAAAAAAAAAAAAAAAAAAAAAAAAAAAAAAAAAAAAAAAAAAAAAAAAAAAAAAAAAAAAAAAAAAAAAAAAAAAAAAAAAAAAAAAAAAAAAAAAAAAAAAAAAAAAAAAAAAAAAAAAAAAAAAAAAAAAAAAAAAAAAAAAAAAAAAAAAAAAAAAAAAAAAAAAAAAAAAAAAAAAAAAAAAAAAAAAAAAAAAAAAAAAAAAAAAAAAAAAAAAAAAAAAAAAAAAAAAAAAAAAAAAAAAAAAAAAAAAAAAAAAAAAAAAAAAAAAAAAAAAAAAAAAAAAAAAAAAAAAAAAAAAAAAAAAAAAAAAAAAAAAAAAAAAAAAAAAAAAAAAAAAAAAAAAAAAAAAAAAAAAAAAAAAAAAAAAAAAAAAAAAAAAAAAAAAAAAAAAAAAAAAAAAAAAAAAAAAAAAAAAAAAAAAAAAAAAAAAAAAAAAAAAAAAAAAAAAAAAAAAAAAAAAAAAAAAAAAAAAAAAAAAAAAAAAAAAAAAAAAAAAAAAAAAAAAAAAAAAAAAAAAAAAAAAAAAAAAAAAAAAAAAAAAAAAAAAAAAAAAAAAAAAAAAAAAAAAAAAAAAAAAAAAAAAAAAAAAAAAAAAAAAAAAAAAAAAAAAAAAAAAAAAAAAAAAAAAAAAAAAAAAAAAAAAAAAAAAAAAAAAAAAAAAAAAAAAAAAAAAAAAAAAAAAAAAAAAAAAAAAAAAAAAAAAAAAAAAAAAAAAAAAAAAAAAAAAAAAAAAAAAAAAAAAAAAAAAAAAAAAAAAAAAAAAAAAAAAAAAAAAAAAAAAAAAAAAAAAAAAAAAAAAAAAAAAAAAAAAAAAAAAAAAAAAAAAAAAAAAAAAAAAAAAAAAAAAAAAAAAAAAAAAAAAAAAAAAAAAAAAAAAAAAAAAAAAAAAAAAAAAAAAAAAAAAAAAAAAAAAAAAAAAAAAAAAAAAAAAAAAAAAAAAAAAAAAAAAAAAAAAAAAAAAAAAAAAAAAAAAAAAAAAAAAAAAAAAAAAAAAAAAAAAAAAAAAAAAAAAAAAAAAAAAAAAAAAAAAAAAAAAAAAAAAAAAAAAAAAAAAAAAAAAAAAAAAAAAAAAAAAAAAAAAAAAAAAAAAAAAAAAAAAAAAAAAAAAAAAAAAAAAAAAAAAAAAAAAAAAAAAAAAAAAAAAAAAAAAAAAAAAAAAAAAAAAAAAAAAAAAAAAAAAAAAAAAAAAAAAAAAAAAAAAAAAAAAAAAAAAAAAAAAAAAAAAAAAAAAAAAAAAAAAAAAAAAAAAAAAAAAAAAAAAAAAAAAAAAAAAAAAAAAAAAAAAAAAAAAAAAAAAAAAAAAAAAAAAAAAAAAAAAAAAAAAAAAAAAAAAAAAAAAAAAAAAAAAAAAAAAAAAAAAAAAAAAAAAAAAAAAAAAAAAAAAAAAAAAAAAAAAAAAAAAAAAAAAAAAAAAAAAAAAAAAAAAAAAAAAAAAAAAAAAAAAAAAAAAAAAAAAAAAAAAAAAAAAAAAAAAAAAAAAAAAAAAAAAAAAAAAAAAAAAAAAAAAAAAAAAAAAAAAAAAAAAAAAAAAAAAAAAAAAAAAAAAAAAAAAAAAAAAAAAAAAAAAAAAAAAAAAAAAAAAAAAAAAAAAAAAAAAAAAAAAAAAAAAAAAAAAAAAAAAAAAAAAAAAAAAAAAAAAAAAAAAAAAAAAAAAAAAAAAAAAAAAAAAAAAAAAAAAAAAAAAAAAAAAAAAAAAAAAAAAAAAAAAAAAAAAAAAAAAAAAAAAAAAAAAAAAAAAAAAAAAAAAAAAAAAAAAAAAAAAAAAAAAAAAAAAAAAAAAAAAAAAAAAAAAAAAAAAAAAAAAAAAAAAAAAAAAAAAAAAAAAAAAAAAAAAAAAAAAAAAAAAAAAAAAAAAAAAAAAAAAAAAAAAAAAAAAAAAAAAAAAAAAAAAAAAAAAAAAAAAAAAAAAAAAAAAAAAAAAAAAAAAAAAAAAAAAAAAAAAAAAAAAAAAAAAAAAAAAAAAAAAAAAAAAAAAAAAAAAAAAAAAAAAAAAAAAAAAAAAAAAAAAAAAAAAAAAAAAAAAAAAAAAAAAAAAAAAAAAAAAAAAAAAAAAAAAAAAAAAAAAAAAAAAAAAAAAAAAAAAAAAAAAAAAAAAAAAAAAAAAAAAAAAAAAAAAAAAAAAAAAAAAAAAAAAAAAAAAAAAAAAAAAAAAAAAAAAAAAAAAAAAAAAAAAAAAAAAAAAAAAAAAAAAAAAAAAAAAAAAAAAAAAAAAAAAAAAAAAAAAAAAAAAAAAAAAAAAAAAAAAAAAAAAAAAAAAAAAAAAAAAAAAAAAAAAAAAAAAAAAAAAAAAAAAAAAAAAAAAAAAAAAAAAAAAAAAAAAAAAAAAAAAAAAAAAAAAAAAAAAAAAAAAAAAAAAAAAAAAAAAAAAAAAAAAAAAAAAAAAAAAAAAAAAAAAAAAAAAAAAAAAAAAAAAAAAAAAAAAAAAAAAAAAAAAAAAAAAAAAAAAAAAAAAAAAAAAAAAAAAAAAAAAAAAAAAAAAAAAAAAAAAAAAAAAAAAAAAAAAAAAAAAAAAAAAAAAAAAAAAAAAAAAAAAAAAAAAAAAAAAAAAAAAAAAAAAAAAAAAAAAAAAAAAAAAAAAAAAAAAAAAAAAAAAAAAAAAAAAAAAAAAAAAAAAAAAAAAAAAAAAAAAAAAAAAAAAAAAAAAAAAAAAAAAAAAAAAAAAAAAAAAAAAAAAAAAAAAAAAAAAAAAAAAAAAAAAAAAAAAAAAAAAAAAAAAAAAAAAAAAAAAAAAAAAAAAAAAAAAAAAAAAAAAAAAAAAAAAAAAAAAAAAAAAAAAAAAAAAAAAAAAAAAAAAAAAAAAAAAAAAAAAAAAAAAAAAAAAAAAAAAAAAAAAAAAAAAAAAAAAAAAAAAAAAAAAAAAAAAAAAAAAAAAAAAAAAAAAAAAAAAAAAAAAAAAAAAAAAAAAAAAAAAAAAAAAAAAAAAAAAAAAAAAAAAAAAAAAAAAAAAAAAAAAAAAAAAAAAAAAAAAAAAAAAAAAAAAAAAAAAAAAAAAAAAAAAAAAAAAAAAAAAAAAAAAAAAAAAAAAAAAAAAAAAAAAAAAAAAAAAAAAAAAAAAAAAAAAAAAAAAAAAAAAAAAAAAAAAAAAAAAAAAAAAAAAAAAAAAAAAAAAAAAAAAAAAAAAAAAAAAAAAAAAAAAAAAAAAAAAAAAAAAAAAAAAAAAAAAAAAAAAAAAAAAAAAAAAAAAAAAAAAAAAAAAAAAAAAAAAAAAAAAAAAAAAAAAAAAAAAAAAAAAAAAAAAAAAAAAAAAAAAAAAAAAAAAAAAAAAAAAAAAAAAAAAAAAAAAAAAAAAAAAAAAAAAAAAAAAAAAAAAAAAAAAAAAAAAAAAAAAAAAAAAAAAAAAAAAAAAAAAAAAAAAAAAAAAAAAAAAAAAAAAAAAAAAAAAAAAAAAAAAAAAAAAAAAAAAAAAAAAAAAAAAAAAAAAAAAAAAAAAAAAAAAAAAAAAAAAAAAAAAAAAAAAAAAAAAAAAAAAAAAAAAAAAAAAAAAAAAAAAAAAAAAAAAAAAAAAAAAAAAAAAAAAAAAAAAAAAAAAAAAAAAAAAAAAAAAAAAAAAAAAAAAAAAAAAAAAAAAAAAAAAAAAAAAAAAAAAAAAAAAAAAAAAAAAAAAAAAAAAAAAAAAAAAAAAAAAAAAAAAAAAAAAAAAAAAAAAAAAAAAAAAAAAAAAAAAAAAAAAAAAAAAAAAAAAAAAAAAAAAAAAAAAAAAAAAAAAAAAAAAAAAAAAAAAAAAAAAAAAAAAAAAAAAAAAAAAAAAAAAAAAAAAAAAAAAAAAAAAAAAAAAAAAAAAAAAAAAAAAAAAAAAAAAAAAAAAAAAAAAAAAAAAAAAAAAAAAAAAAAAAAAAAAAAAAAAAAAAAAAAAAAAAAAAAAAAAAAAAAAAAAAAAAAAAAAAAAAAAAAAAAAAAAAAAAAAAAAAAAAAAAAAAAAAAAAAAAAAAAAAAAAAAAAAAAAAAAAAAAAAAAAAAAAAAAAAAAAAAAAAAAAAAAAAAAAAAAAAAAAAAAAAAAAAAAAAAAAAAAAAAAAAAAAAAAAAAAAAAAAAAAAAAAAAAAAAAAAAAAAAAAAAAAAAAAAAAAAAAAAAAAAAAAAAAAAAAAAAAAAAAAAAAAAAAAAAAAAAAAAAAAAAAAAAAAAAAAAAAAAAAAAAAAAAAAAAAAAAAAAAAAAAAAAAAAAAAAAAAAAAAAAAAAAAAAAAAAAAAAAAAAAAAAAAAAAAAAAAAAAAAAAAAAAAAAAAAAAAAAAAAAAAAAAAAAAAAAAAAAAAAAAAAAAAAAAAAAAAAAAAAAAAAAAAAAAAAAAAAAAAAAAAAAAAAAAAAAAAAAAAAAAAAAAAAAAAAAAAAAAAAAAAAAAAAAAAAAAAAAAAAAAAAAAAAAAAAAAAAAAAAAAAAAAAAAAAAAAAAAAAAAAAAAAAAAAAAAAAAAAAAAAAAAAAAAAAAAAAAAAAAAAAAAAAAAAAAAAAAAAAAAAAAAAAAAAAAAAAAAAAAAAAAAAAAAAAAAAAAAAAAAAAAAAAAAAAAAAAAAAAAAAAAAAAAAAAAAAAAAAAAAAAAAAAAAAAAAAAAAAAAAAAAAAAAAAAAAAAAAAAAAAAAAAAAAAAAAAAAAAAAAAAAAAAAAAAAAAAAAAAAAAAAAAAAAAAAAAAAAAAAAAAAAAAAAAAAAAAAAAAAAAAAAAAAAAAAAAAAAAAAAAAAAAAAAAAAAAAAAAAAAAAAAAAAAAAAAAAAAAAAAAAAAAAAAAAAAAAAAAAAAAAAAAAAAAAAAAAAAAAAAAAAAAAAAAAAAAAAAAAAAAAAAAAAAAAAAAAAAAAAAAAAAAAAAAAAAAAAAAAAAAAAAAAAAAAAAAAAAAAAAAAAAAAAAAAAAAAAAAAAAAAAAAAAAAAAAAAAAAAAAAAAAAAAAAAAAAAAAAAAAAAAAAAAAAAAAAAAAAAAAAAAAAAAAAAAAAAAAAAAAAAAAAAAAAAAAAAAAAAAAAAAAAAAAAAAAAAAAAAAAAAAAAAAAAAAAAAAAAAAAAAAAAAAAAAAAAAAAAAAAAAAAAAAAAAAAAAAAAAAAAAAAAAAAAAAAAAAAAAAAAAAAAAAAAAAAAAAAAAAAAAAAAAAAAAAAAAAAAAAAAAAAAAAAAAAAAAAAAAAAAAAAAAAAAAAAAAAAAAAAAAAAAAAAAAAAAAAAAAAAAAAAAAAAAAAAAAAAAAAAAAAAAAAAAAAAAAAAAAAAAAAAAAAAAAAAAAAAAAAAAAAAAAAAAAAAAAAAAAAAAAAAAAAAAAAAAAAAAAAAAAAAAAAAAAAAAAAAAAAAAAAAAAAAAAAAAAAAAAAAAAAAAAAAAAAAAAAAAAAAAAAAAAAAAAAAAAAAAAAAAAAAAAAAAAAAAAAAAAAAAAAAAAAAAAAAAAAAAAAAAAAAAAAAAAAAAAAAAAAAAAAAAAAAAAAAAAAAAAAAAAAAAAAAAAAAAAAAAAAAAAAAAAAAAAAAAAAAAAAAAAAAAAAAAAAAAAAAAAAAAAAAAAAAAAAAAAAAAAAAAAAAAAAAAAAAAAAAAAAAAAAAAAAAAAAAAAAAAAAAAAAAAAAAAAAAAAAAAAAAAAAAAAAAAAAAAAAAAAAAAAAAAAAAAAAAAAAAAAAAAAAAAAAAAAAAAAAAAAAAAAAAAAAAAAAAAAAAAAAAAAAAAAAAAAAAAAAAAAAAAAAAAAAAAAAAAAAAAAAAAAAAAAAAAAAAAAAAAAAAAAAAAAAAAAAAAAAAAAAAAAAAAAAAAAAAAAAAAAAAAAAAAAAAAAAAAAAAAAAAAAAAAAAAAAAAAAAAAAAAAAAAAAAAAAAAAAAAAAAAAAAAAAAAAAAAAAAAAAAAAAAAAAAAAAAAAAAAAAAAAAAAAAAAAAAAAAAAAAAAAAAAAAAAAAAAAA3rf08Tv1kv9V/e7Sx18uffzV0seXlwi2V6u54Ct1+dwHl8FH66vnq7mI+9WAv1kOuDAffK0OH10KuHaxmvlArdj8el1k/qGlgPWZ40al3t6tqbf3q6WAx2Yu6Z9W6qu7YcjurywD3HhirEAb4wV9ulJf2w0ip+yzlgGenHlk8blKfSPgVlpbCrhSd+3pILMeLeg3K/WtXbX6Tjq3FPCJTgNfqwaZ5WjK9VxV1Tt7RYS76fxZjzB4rtdRgN8awvfG48WKO3veXFUvpAtLATdrofX+bKgNvz8KP1PwUvXT7u65d646aC4W3n7WY+dm3bWnA5/8wSgh31DwcOUN9b09Dy5Uh80l9Y0z9A1j22fndu21RYBvDMi1uTdKxncV6R+tvNuDverwUvWouay+tX7Wv+vp3Xr74+XFb1YD4cjeqOb8WB3wMQf71cOnHDVP8fRjZ1oDD2jS2ihxigmtb1wv7fmjlX5cG4c/LvIdPf4bDverR9fr4/SJ2p2ts9PBro/FfrWTUfzpyoCU4zj13xX9PH78Zv1wf+Xo9maTfrN298pZFHyONTBjFCSQh8nK/fyR4k9LQ7+qR8qMsdH25slrbnu0//jx3tU0uVm7n3nLmWZqf6mvUe5lBRmnjncnq4e36+JPV6jfX3fVcRLx5tVeGX9A9RfNa3Yd7b+6SZ+dTG7X1YuZt3TGdXVG5Qd7RHgwoCB93ZHWjjKCPw391CPOavymTK378K8rqkfNW/cc778lpe+lyW5dHdzuiHrrzAhCh9hjnwiHN0fifvrZZjdgtSrzCR0pX2hjytLUt3pQPrVaVUfNW/cfP9l/b0oppR+qDnfrOirw2RSE/Utsi8AXbo/EC+lvJrtBroK/6OKgWQu4M4C1ynHz1slrmslnJgX7VfWw66B+nIOws0HT3jHAHv9fZzAUf7E7JGdXwYr69OCLAUULWwSzPIDzG/VJ84H0tjT57YiV6mh/5f1xXJ8VQdhH6n6u0eTMSE+jDTDJPnOUUgqqc9SL1ry0CNo0gAt/uXmSPpA+OJl8LmCyWh1PVr8cNfXUEfDR6aLMDbuOomQG28xIl0hOBrNk3QGWUnq+Knq5Vqm+HcQp7KrJ1wvd0ovtZv2ft1P6pfQrk8k3U/iPtY3jZu1fo13LCdzTy676Wzq7wRhkxMZuMwNdIjWZ5CzZaOz34B+78h+3CK05gD95/mrBV9PkufCrObd50rwjix1G6qUzYhqhg9dF9jzJg6EbX076s2S97qgMn0I5TgKKaIV/Nc352JoZfX3apMlnJs0vTVJ65aWI89tN+kFW6DBSLy9YkDhTDMQL2bt2QuSYGb3YleiZlDVpJJpiPopROVepXl7pDtgWoTWz4sZPrBRhJumzk+b3JilNHkVcuBouGezWU6dNw8anUSILeHdUtrTeZ1+bC+NROMar2m4pQWWn+4qUwVtlREHOV/V2Sul3OmjiyxevFayFcbs4BDyOm3msBOmmEYKavCey53S5m0U/TGnIMPY42GI+q3o7YrVrpQrKaMyIglys6qJjfzFp/jJcPeLSjUlKrYsqEmYCvmDuY+o/P7My1H7fjvr2TAdP1TEz2hkMf+FR0+rgNIgmumq/KqpvQTA15zuCPKag+VIawOVbGWVAF0uVee2CuY9euzTSX2aaMyDHP1WRRu9GufMgiKS6/YKYLDxKWQcH5O8SjIJzPci2uaOwTdbSjuOKI3irDr/9S2q+1IundjKCiaq3J5nXLoS+dd3HlJ0Y3dyQHEcrsTv2oty5vYOxmeT+i1L+9ElKWRdHWPeCoDj1tYhsm2MQkXJONXxd67jjeL4SEV7sw8fv5MsXE1V4zd5CXPe3uyxhFAbbud/MBdoYzeheNJO5vUMvtJmBqF0fSCkNGMbonQqC4tQ30vlqQ4vQHS+kPErD1FJOrXcU8fqNtQ6+3EW5lWcjiovPs7CL4G1z8q/jPqZQ4h5i1C9ZoA3RT4a7L6m00AuvFOmKU/hKSq0ODmv5b9TVUQ8uVL9ft26mw8Ym68FxdfHszf914dok4LvdX+VW/neWpAzRqvC62Qfe47xglj1288ggaSCiyInBATlaVhEum0lQR2+jUdmrY6+0jdQahmHhb9bZHkXFCRr2vRbF2qwVb3wpsJUWMQ+x9/BiQJtv6MXNH+crtSoaLPXsZyFHWsG17m1Oew8tB+i9zeggIk/Ivd+hHyF6aHsnMubSSDm9MCB8WD5QHUcEDft/jx+XZt5+U/2wSU8Uye5lREN0PzVvuhZjrX/uIHTlQfi+erXembS8bv7+Juh9MJjTDOJeYtQvR2mgwh5bEhjpR+iFQKmDxyzh5YjO22tFywOn2Nif3kkXq5OfPrlYXMgVRy3C/bd31w3Pt8pv5SLx5Xgrj8L33bhS38lMdf6Bd+u829uM3zTdIK4CMcoDo9OEXYYd1bHNF5Vxm1HsykkQozWKnSxBb5DSWTiREehjff5Ourh58rMnF4PTKh22ZaNlpW1DdMOzT9yI+P8ppZRS6v2+OzfdK4qwvTb3qClzoy4byksapuGkIYzqcyPBQbR+ojRwGf2FcOUx1hlugRN2Wmx1hPKuZYsUDMfmhWfSxe3m55v1YLQ3T1La8pd19TAjmPPqoEnXb3QIxwhcebDrfkoXN27NJfYe0J7CjaLByEZsCuneGIhRx6Xmt0ZekO1E5MuRBGf6FbUwDoaNPw0t1hrG4ds8txmxfeFeuridPto8FozWdlEmRyvVUaZfZSAUBZzcnAI3H+2V/M16vbM+10nQoE0dZSph/xRXL31zr9+MlH7IDDvw5WL9ipnYi3rVsU53OlmCXnRYRcQT2xfvpfWr6fnc78HpX52kdKU+XquOI/18vYfNZHck4h1NVg9SuuzuE3N8OXr3lhuErztpjdgUg3MrpMtak1J8xB+10pR+KMOwFqxfpJ9huAX6vL12r22dSC8yhgbrq5pgOLfXX0iXWuuU9T5MxZUW/sRmc37zJKPc3MdL2BKkGfOXTgLqsGjqC3PPPbzQcoPwdSVInuLqT4ZwubRwOz/S+pngF0KPZetXUMTKfqvlAiUouqTeeex+QemDb6wOqHm6nD1yMJxX1x+UGDJy87v7twqutiOx9FtJ5hRHVKQZ9UenSx826RMO5joJF3hyyw065jNbsClWSjwZw8VsaYukzYVqo8Owq9/1QumwIlbATlCk+u4nDiJLWK8ervWtJyuddmU7CPTU1ccOmku3wmhT3Z98LqV0/Vp64mobfoRkjkJP/2wkOl36qEnXPZxj7qHjbgpPCgqT3UhZ+zbWOLVo6XJoozL3v/nHdYdhf99BF5MV9cozwXxWL+y3xiWYl5xc6nlPYJWT61ej47j22EHzRNtN7egtY/qfCqW+lZ66MWlRllll91xyDiP+0ZuAOGomNz2aPvcwfTBVUmBBYYobqb5bjcPddgK1bYfwwc2TdLudIi49tltoxMMmG4qCR5PV+up6NjelIavDSZcfXEvn3hfupWOsJrcLCqX4icPm8p2UJp+o62xCY0ixM7l+q0Vxansbx6lNOIxH0dKTNNl1nHMP86adxTcWut+Ol/aSY5n8gy1texcemT1LSXv9c1qrCsOub+2vtNmVsA7kaLK6cevJH4dgq02tdKOEe+ncw96/3p/stiitfeMnH7YIYm6fz6m4IOSzk9t32sEd5qYfP0mp+eupMCntsHnSE9o8Pp9sS2sE26V8heWHQbXTrusbZ5y2CqOI+c6ddtCHoXac9lfuTVaPQnapiLFW3bnyoFXOElr1NM5J8/o+g14G2H6LMMb+88Pm8r0g5tULDyPup+efa8PPEH28pojy/ZRSStP81/Pbk926rgI3yEsU5kQ7i9koLDeMl4P2q8YZp61W36IfDbNmwbecpOL6V09KELT56/VJWqvuXTkIwWam1r1t8689Bj3e3mcnoY1v/edHzdb9gGsXjyIe5Oxqj3F/XUoppWlRkvJ71Y/OB6Kb48aZ084enhAmA0KS4KjFuNh0q0ukL4YhVXR0s0mTtaOmqMfl+sbu5klzrjq4XqTaa2XqbZ02+zYw5/BLETtPPmq2HoRuurF+HEPKeOn14OTfkWbz888n+ys5/d5ZzTB72tnxk0/YXKkeNXkARPIxzjhtRUZRSMJxNHqBYb8jNW8L7Xpv/81Nc656dDvnlMqcUiaRQyT5Syt9bq75lUlo4ztXjponD0Jsfuux6KV2jzo6vb36qPnI9OhGpL/c8p8wbT2fJET2kyXc+cZ7HLUKUCL5ixsrozIuW3V1JzbNn7X6XhorjMNXihYVR3uY3lo49vF+UZz9lTxFPsgRciohjvK1h036m14chlvYuVxQphY6eGb9uPn1lFKaxX/F7E6hBW0QPo+ZpvvFBXp4e7M4sZL7u3Tj8ijjtNWGHbEJw4gqupXHYUCZEilJgw9MmvPd4bY6TBdjLr6sGHzUZGFjxz37ieN0JQ7TO+/pjtMODr/epL9Ls/oZJrGLW2x581xoZzB8J+l3i/glI7r1QiYyYzIuW1fXDgZZf27bmBIuHbfdNL8/eeXCeztdsxZ1tCdZVgLWiCvFIHdwPaDc7rO/MUSoAuX84azQ8YbFLM4hAn1NINOTEvO1jdhO75a3Bkc+HCxu3X0iU4kh1r/TTYnE9MjzqbmQ1a0j070RmtG5gTAu4wC+f/0kXWnNVPHeX+8I2eWqkbTO8ue5qrqXchpg9l9xu67CjX8+ih9GRLn0qwclvJP+0+FeT1t0AopnehngndDcF3e6VubBGM3okPu+nnjh5kn6xFHAC0MyXr4661+lx3/+qExyzP6Kq5EgNEMB/Wv+ODCZLlku1/hPZa5oyJfezTL06NDDFHxyG2vGDjgcEySOwMFuk64fhz4J3TQwszbzn+sPiqQzicAGm/N81vBRo/gHnZd6yeJTJ8PCXX8wom3XD7rNMDBGY59EL9+Lw0lBMNPZpA39I3fpSEwVgmS1CMZtplcInnr96lg/tnO+T8BAgr4+Qrj9XmrZ19wdxWlp5MgPZvTJ/XCS0s2TmEBphtDph5m+sYlf+qopZhzGzn8+lfPaI/FwoAvbKGpGN/9Ytyv+fow2Z2c2jEdlwIYbWhu6r8FBPs2XjjHuL89wHiJOmNzeGduCr0xWq27CrGQcZtUOv9EVr6cze01TvVHR3mZfQNbnNQbb+Tdn9ckxQ+Hxk8vqWX0opshf+b/jdejiRsvKOjcxOzc4hbUMxuW51SonY8cm0Ab7tX33fH5GBj7T9UKTqe7wpm/+3UpOQoWM7IAbnF+b/MLRhSlQTNic762HN+zV1z46kxdKgq16esp7+NsmvcnnPlrXm//8hXFtMg/TeKklMGNZwxzG2VTJ6BdmMRcbXUAmB1M31GTvA2UuYicveBrbIrMnR5+oc+wyUqCfbxYJ72l3Js3iymGaoJnWiERl+U3lKgvxR1gxfzgS70opzeAvs41C69E7mOfgS6fOfM0+OqjHGpiYYVigd035zxn70sVpjy4d+fxYRfmjhbu/j916Vz39VWYW2i3aiEhj+/oHi3d/x5M81zP1n5lwnUrM4v4WxcKn5uNy6DjFOzY2qvrRqfp3fxefnhfeWahFprrj59G/nVI6TT9Pp47/2muq8XzzD/46rGM6rX+conftf/Ur3xvOxPYF/8vsZ28OLa9gGY/J8sSS/8dX8kzEUn9LvbEx1YWWHt5ZhwudNbzr9LwWedfUvPuU6shY3r14Vyu8+zTHXdPksv58rDyLGXct+7j73wB5lxnl3aa+gZJ3SznvtkA09RTl3WaVdg4XaabJu56UvOtHSt718wuUd332NORdfzSYd50m+i5zTlPn3fMyzLM57z6zeZeyp3nkvEth7GXepVqceZcyuXya5l2qUzzv1iPeyHm31tj13+YCz7styrzrXHx0Z961nU4eNe+a2+O0zLuepfPuaRHn3Tfnse5iHA++nZV3JusuRmCqdRd5TdTpWHcxv3U3Q2Zv9LqbQWydTetuFnzd1dCtLti6qyHMc93V3NbdlfvsWXd3PK91d/865bq7H0697m6gj9p1dzP/n3NVobR5B9YpX3fZVgQ5Y9ddtgyl3W4Qxut81t2GLWFD625fNft1t08uzrrbsG/uwhmy7noEnTk1667PkHX36bSuuz9V+y7C3orF3HeR953MZd9Fu1Op3XdxuvbdlB3m+7Pbd7Mxu303rV3L+07muO9mnvuu8gaEM2Pf1f5z7W8t1evuu5o+1BrYdzWfqjNh312pHtRu+596313hD+P23U2m3nfXX0hsFvvu2jXKM9t3V9qhf9/dou67LGN6Hvsu02ncd1kvwL7bIvx0+25batvZd/tHo/bdlroVY/fddtGq9xz23U4VbBwVV5n33Z45+66Dm2n3XcfGGbnvuuw7n9G+68mM9l2fyn33VXfffTWfffchQXwm7LsP7jqsVW73bc207kI957oLmwtXd2ER6m6Espensu7GpNTdyOZ+ZN2Nn+vU3Zgi2Oqru7EwdVem463T111py88N1l25NaO6K1dL3ZVquO5KcAQzrLtyNtTdaff9zrPuTinaFuvu1LOtu1PPp+7OmJiyt+7SVCHK7Oou1fOsu5QD4HnVXTrldbfagL+v7lYRv2XjM6y7NZlB3a1O3bFp6m4tjbprm29q57dj4izWXYuRUKi71vL8qequnYq6ez1ltAd6JpeNXaC6e+0JHZ26e20ANFB3r/PbcN298m2dununuu7i8SzqLo7JYU5VdzHNpe7iItRbnVPdzdiy09bdfFuZChiBaepuhrqTRZtG1d3sD7cG6m4uRDXlU1V3NfjTUXVXS8HeKeuu9n/hQN3VhcAC1d0NFzp1dXcXqqr2x6a/iRF1l6Ogo+su//nC111uXVtbd3mhyq7PoO52NdhRvxjv+umhutt5+idKNb+62xszrrt9uuuu52WtI+uu51PBolQzqLu+Pdu66zkj21N3vcQz3brrZ1fd/cIgTkXd/TPp3IU0h3MXOgHQdOcuFIw8d+HMOXejOMPZn7vRzYCftnM3FsphTXnuyngsyrkrZ8S5Qx8dd+5OiUjneu5OV/TBc3dagz1w7s5Zce7SgBbmc5d6RBh/7lIJyBfl3KXlfe5W7Nf23K3leu5azOR0zl0rGtqeu7aUz93baM/d65zHvnIGn7tYVgj0nbtY2m3w3MX2WOHpz118oe/cxTP43M1SIXLg3M162nM3vz7m3M26PXdzCZ+7qnPuai7gdBaeu9rHGsafu9tJ0s303N16RufunpnH0c703OWPjjp3eSefu7w8zt0e0NJxLPXdY8/dPvvPXc890j13vdfHTHfuuqFz15fGuftDmPLc/W/sZULec+7+mf/cBV3eMKfnLlgSz93QSeTO+rkb6qo8d8Pyfe6K1j8NPHfFMnvujszYRws69NwdS+y5SzKbHP/cIQPPXbIUnrtlhuicr97/3C3L/7lrlvlz95TkdH7unqX/3EX/Xnjupnkvdcu8ebk/d1VbEmdOz921/J+7bPk/d9u/7Z67bikYq/zcff/ef+5CAAAAAAAAAAAAAAAAAAAAAAAAAAAAAAAAAAAAAAAAAAAAAAAAAAAAAAAAAAAAAAAAAAAAAAAAAAAAAAAAAAAAAAAAAAAAAAAAAAAAAAAAAAAAAAAAAAAAAAAAAAAAAAAAAAAAAAAAAAAAAAAAAAAAAAAAAAAAAAAAAAAAAAAAAAAAAAAAAAAAAAAAAAAAAAAAAAAAAAAAAAAAAAAAAAAAAAAAAAAAAAAAAAAAAAAAAAAAAAAAAAAAAAAAAAAAAAAAAAAAAAAAAAAAAAAAAAAAAAAAAAAAAAAAAAAAAAAAAAAAAAAAAAAAAAAAAAAAAAAAAAAAAAAAAAAAAAAAAAAAAAAAAAAAAAAAAAAAAAAAAAAAAAAAAAAAAAAAAAAAAAAAAAAAAAAAAAAAAAAAAAAAAAAAAAAAAAAAAAAAAAAAAAAAAAAAAAAAAAAAAAAAAAAAAAAAAAAAAAAAAAAAAAAAAAAAAAAAAAAAAAAAAAAAAAAAAAAAAAAAAAAAAAAAAAAAAAAAAAAAAAAAAAAAAAAAAAAAAAAAAAAAAAAAAAAAAAAAAAAAAAAAAAAAAAAAAAAAAAAAAAAAAAAAAAAAAAAAAAAAAAAAAAAAAAAAAAAAAAAAAAAAAAAAAAAAAAAAAAAAAAAAAAAAAAAAAAAAAAAAAAAAAAAAAAAAAAAAAAAAAAAAAAAAAAAAAAAAAAAAAAAAAAAAAAAAAAAAAAAAAAAAAAAAAAAAAAAAAAAAAAAAAAAAAAAAAAAAAAAAAAAAAAAAAAAAAAAAAAAAAAAAAAAAAAAAAAAAAAAAAAAAAAAAAAAAAAAAAAAAAAAAAAAAAAAAAAAAAAAAAAAAAAAAAAAAAAAAAAAAAAAAAAAAAAAAAAAAAAAAAAAAAAAAAAAAAAAAAAAAAAAAAAAAAAAAAAAAAAAAAAAAAAAAAAAAAAAAAAAAAAAAAAAAAAAAAAAAAAAAAAAAAAAAAAAAAAAAAAAAAAAAAAAAAAAAAAAAAAAAAAAAAAAAAAAAAAAAAAAAAAAAAAAAAAAAAAAAAAAAAAAAAAAAAAAAAAAAAAAAAAAAAAAAAAAAAAAAAAAAAAAAAAAAAAAAAAAAAAAAAAAAAAAAAAAAAAAAAAAAAAAAAAAAAAAAAAAAAAAAAAAAAAAAAAAAAAAAAAAAAAAAAAAAAAAAAAAAAAAAAAAAAAAAAAAAAAAAAAAAAAAAAAAAAAAAAAAAAAAAAAAAAAAAAAAAAAAAAAAAAAAAAAAAAAAAAAAAAAAAAAAAAAAAAAAAAAAAAAAAAAAAAAAAAAAAAAAAAAAAAAAAAAAAAAAAAAAAAAAAAAAAAAAAAAAAAAAAAAAAAAAAAAAAAAAAAAAAAAAAAAAAAAAAAAAAAAAAAAAAAAAAAAAAAAAAAAAAAAAAAAAAAAAAAAAAAAAAAAAAAAAAAAAAAAAAAAAAAAAAAAAAAAAAAAAAAAAAAAAAAAAAAAAAAAAAAAAAAAAAAAAAAAAAAAAAAAAAAAAAAAAAAAAAAAAAAAAAAAAAAAAAAAAAAAAAAAAAAAAAAAAAAAAAAAAAAAAAAAAAAAAAAAAAAAAAAAAAAAAAAAAAAAAAAAAAAAAAAAAAAAAAAAAAAAAAAAAAAAAAAAAAAAAAAAAAAAAAAAAAAAAAAAAAAAAAAAAAAAAAAAAAAAAAAAAAAAAAAAAAAAAAAAAAAAAAAAAAAAAAAAAAAAAAAAAAAAAAAAAAAAAAAAAAAAAAAAAAAAAAAAAAAAAAAAAAAAAAAAAAAAAAAAAAAAAAAAAAAAAAAAAAAAAAAAAAAAAAAAAAAAAAAAAAAAAAAAAAAAAAAAAAAAAAAAAAAAAAAAAAAAAAAAAAAAAAAAAAAAAAAAAAAAAAAAAAAAAAAAAAAAAAAAAAAAAAAAAAAAAAAAAAAAAAAAAAAAAAAAAAAAAAAAAAAAAAAAAAAAAAAAAAAAAAAAAAAAAAAAAAAAAAAAAAAAAAAAAAAAAAAAAAAAAAAAAAAAAAAAAAAAAAAAAAAAAAAAAAAAAAAAAAAAAAAAAAAAAAAAAAAAAAAAAAAAAAAAAAAAAAAAAAAAAAAAAAAAAAAAAAAAAAAAAAAAAAAAAAAAAAAAAAAAAAAAAAAAAAAAAAAAAAAAAAAAAAAAAAAAAAAAAAAAAAAAAAAAAAAAAAAAAAAAAAAAAAAAAAAAAAAAAAAAAAAAAAAAAAAAAAAAAAAAAAAAAAAAAAAAAAAAAAAAAAAAAAAAAAAAAAAAAAAAAAAAAAAAAAAAAAAAAAAAAAAAAAAAAAAAAAAAAAAAAAAAAAAAAAAAAAAAAAAAAAAAAAAAAAAAAAAAAAAAAAAAAAAAAAAAAAAAAAAAAAAAAAAAAAAAAAAAAAAAAAAAAAAAAAAAAAAAAAAAAAAAAAAAAAAAAAAAAAAAAAAAAAAAAAAAAAAAAAAAAAAAAAAAAAAAAAAAAAAAAAAAAAAAAAAAAAAAAAAAAAAAAAAAAAAAAAAAAAAAAAAAAAAAAAAAAAAAAAAAAAAAAAAAAAAAAAAAAAAAAAAAAAAAAAAAAAAAAAAAAAAAAAAAAAAAAAAAAAAAAAAAAAAAAAAAAAAAAAAAAAAAAAAAAAAAAAAAAAAAAAAAAAAAAAAAAAAAAAAAAAAAAAAAAAAAAAAAAAAAAAAAAAAAAAAAAAAAAAAAAAAAAAAAAAAAAAAAAAAAAAAAAAAAAAAAAAAAAAAAAAAAAAAAAAAAAAAAAAAAAAAAAAAAAAAAAAAAAAAAAAAAAAAAAAAAAAAAAAAAAAAAAAAAAAAAAAAAAAAAAAAAAAAAAAAAAAAAAAAAAAAAAAAAAAAAAAAAAAAAAAAAAAAAAAAAAAAAAAAAAAAAAAAAAAAAAAAAAAAAAAAAAAAAAAAAAAAAAAAAAAAAAAAAAAAAAAAAAAAAAAAAAAAAAAAAAAAAAAAAAAAAAAAAAAAAAAAAAAAAAAAAAAAAAAAAAAAAAAAAAAAAAAAAAAAAAAAAAAAAAAAAAAAAAAAAAAAAAAAAAAAAAAAAAAAAAAAAAAAAAAAAAAAAAAAAAAAAAAAAAAAAAAAAAAAAAAAAAAAAAAAAAAAAAAAAAAAAAAAAAAAAAAAAAAAAAAAAAAAAAAAAAAAAAAAAAAAAAAAAAAAAAAAAAAAAAAAAAAAAAAAAAAAAAAAAAAAAAAAAAAAAAAAAAAAAAAAAAAAAAAAAAAAAAAAAAAAAAAAAAAAAAAAAAAAAAAAAAAAAAAAAAAAAAAAAAAAAAAAAAAAAAAAAAAAAAAAAAAAAAAAAAAAAAAAAAAAAAAAAAAAAAAAAAAAAAAAAAAAAAAAAAAAAAAAAAAAAAAAAAAAAAAAAAAAAAAAAAAAAAAAAAAAAAAAAAAAAAAAAAAAAAAAAAAAAAAAAAAAAAAAAAAAAAAAAAAAAAAAAAAAAAAAAAAAAAAAAAAAAAAAAAAAAAAAAAAAAAAAAAAAAAAAAAAAAAAAAAAAAAAAAAAAAAAAAAAAAAAAAAAAAAAAAAAAAAAAAAAAAAAAAAAAAAAAAAAAAAAAAAAAAAAAAAAAAAAAAAAAAAAAAAAAAAAAAAAAAAAAAAAAAAAAAAAAAAAAAAAAAAAAAAAAAAAAAAAAAAAAAAAAAAAAAAAAAAAAAAAAAAAAAAAAAAAAAAAAAAAAAAAAAAAAAAAAAAAAAAAAAAAAAAAAAAAAAAAAAAAAAAAAAAAAAAAAAAAAAAAAAAAAAAAAAAAAAAAAAAAAAAAAAAAAAAAAAAAAAAAAAAAAAAAAAAAAAAAAAAAAAAAAAAAAAAAAAAAAAAAAAAAAAAAAAAAAAAAAAAAAAAAAAAAAAAAAAAAAAAAAAAAAAAAAAAAAAAAAAAAAAAAAAAAAAAAAAAAAAAAAAAAAAAAAAAAAAAAAAAAAAAAAAAAAAAAAAAAAAAAAAAAAAAAAAAAAAAAAAAAAAAAAAAAAAAAAAAAAAAAAAAAAAAAAAAAAAAAAAAAAAAAAAAAAAAAAAAAAAAAAAAAAAAAAAAAAAAAAAAAAAAAAAAAAAAAAAAAAAAAAAAAAAAAAAAAAAAAAAAAAAAAAAAAAAAAAAAAAAAAAAAAAAAAAAAAAAAAAAAAAAAAAAAAAAAAAAAAAAAAAAAAAAAAAAAAAAAAAAAAAAAAAAAAAAAAAAAAAAAAAAAAAAAAAAAAAAAAAAAAAAAAAAAAAAAAAAAAAAAAAAAAAAAAAAAAAAAAAAAAAAAAAAAAAAAAAAAAAAAAAAAAAAAAAAAAAAAAAAAAAAAAAAAAAAAAAAAAAAAAAAAAAAAAAAAAAAAAAAAAAAAAAAAAAAAAAAAAAAAAAAAAAAAAAAAAAAAAAAAAAAAAAAAAAAAAAAAAAAAAAAAAAAAAAAAAAAAAAAAAAAAAAAAAAAAAAAAAAAAAAAAAAAAAAAAAAAAAAAAAAAAAAAAAAAAAAAAAAAAAAAAAAAAAAAAAAAAAAAAAAAAAAAAAAAAAAAAAAAAAAAAAAAAAAAAAAAAAAAAAAAAAAAAAAAAAAAAAAAAAAAAAAAAAAAAAAAAAAAAAAAAAAAAAAAAAAAAAAAAAAAAAAAAAAAAAAAAAAAAAAAAAAAAAAAAAAAAAAAAAAAAAAAAAAAAAAAAAAAAAAAAAAAAAAAAAAAAAAAAAAAAAAAAAAAAAAAAAAAAAAAAAAAAAAAAAAAAAAAAAAAAAAAAAAAAAAAAAAAAAAAAAAAAAAAAAAAAAAAAAAAAAAAAAAAAAAAAAAAAAAAAAAAAAAAAAAAAAAAAAAAAAAAAAAAAAAAAAAAAAAAAAAAAAAAAAAAAAAAAAAAAAAAAAAAAAAAAAAAAAAAAAAAAAAAAAAAAAAAAAAAAAAAAAAAAAAAAAAAAAAAAAAAAAAAAAAAAAAAAAAAAAAAAAAAAAAAAAAAAAAAAAAAAAAAAAAAAAAAAAAAAAAAAAAAAAAAAAAAAAAAAAAAAAAAAAAAAAAAAAAAAAAAAAAAAAAAAAAAAAAAAAAAAAAAAAAAAAAAAAAAAAAAAAAAAAAAAAAAAAAAAAAAAAAAAAAAAAAAAAAAAAAAAAAAAAAAAAAAAAAAAAAAAAAAAAAAAAAAAAAAAAAAAAAAAAAAAAAAAAAAAAAAAAAAAAAAAAAAAAAAAAAAAAAAAAAAAAAAAAAAAAAAAAAAAAAAAAAAAAAAAAAAAAAAAAAAAAAAAAAAAAAAAAAAAAAAAAAAAAAAAAAAAAAAAAAAAAAAAAAAAAAAAAAAAAAAAAAAAAAAAAAAAAAAAAAAAAAAAAAAAAAAAAAAAAAAAAAAAAAAAAAAAAAAAAAAAAAAAAAAAAAAAAAAAAAAAAAAAAAAAAAAAAAAAAAAAAAAAAAAAAAAAAAAAAAAAAAAAAAAAAAAAAAAAAAAAAAAAAAAAAAAAAAAAAAAAAAAAAAAAAAAAAAAAAAAAAAAAAAAAAAAAAAAAAAAAAAAAAAAAAAAAAAAAAAAAAAAAAAAAAAAAAAAAAAAAAAAAAAAAAAAAAAAAAAAAAAAAAAAAAAAAAAAAAAAAAAAAAAAAAAAAAAAAAAAAAAAAAAAAAAAAAAAAAAAAAAAAAAAAAAAAAAAAAAAAAAAAAAAAAAAAAAAAAAAAAAAAAAAAAAAAAAAAAAAAAAAAAAAAAAAAAAAAAAAAAAAAAAAAAAAAAAAAAAAAAAAAAAAAAAAAAAAAAAAAAAAAAAAAAAAAAAAAAAAAAAAAAAAAAAAAAAAAAAAAAAAAAAAAAAAAAAAAAAAAAAAAAAAAAAAAAAAAAAAAAAAAAAAAAAAAAAAAAAAAAAAAAAAAAAAAAAAAAAAAAAAAAAAAAAAAAAAAAAAAAAAAAAAAAAAAAAAAAAAAAAAAAAAAAAAAAAAAAAAAAAAAAAAAAAAAAAAAAAAAAAAAAAAAAAAAAAAAAAAAAAAAAAAAAAAAAAAAAAAAAAAAAAAAAAAAAAAAAAAAAAAAAAAAAAAAAAAAAAAAAAAAAAAAAAAAAAAAAAAAAAAAAAAAAAAAAAAAAAAAAAAAAAAAAAAAAAAAAAAAAAAAAAAAAAAAAAAAAAAAAAAAAAAAAAAAAAAAAAAAAAAAAAAAAAAAAAAAAAAAAAAAAAAAAAAAAAAAAAAAAAAAAAAAAAAAAAAAAAAAAAAAAAAAAAAAAAAAAAAAAAAAAAAAAAAAAAAAAAAAAAAAAAAAAAAAAAAAAAAAAAAAAAAAAAAAAAAAAAAAAAAAAAAAAAAAAAAAAAAAAAAAAAAAAAAAAAAAAAAAAAAAAAAAAAAAAAAAAAAAAAAAAAAAAAAAAAAAAAAAAAAAAAAAAAAAAAAAAAAAAAAAAAAAAAAAAAAAAAAAAAAAAAAAAAAAAAAAAAAAAAAAAAAAAAAAAAAAAAAAAAAAAAAAAAAAAAAAAAAAAAAAAAAAAAAAAAAAAAAAAAAAAAAAAAAAAAAAAAAAAAAAAAAAAAAAAAAAAAAAAAAAAAAAAAAAAAAAAAAAAAAAAAAAAAAAAAAAAAAAAAAAAAAAAAAAAAAAAAAAAAAAAAAAAAAAAAAAAAAAAAAAAAAAAAAAAAAAAAAAAAAAAAAAAAAAAAAAAAAAAAAAAAAAAAAAAAAAAAAAAAAAAAAAAAAAAAAAAAAAAAAAAAAAAAAAAAAAAAAAAAAAAAAAAAAAAAAAAAAAAAAAAAAAAAAAAAAAAAAAAAAAAAAAAAAAAAAAAAAAAAAAAAAAAAAAAAAAAAAAAAAAAAAAAAAAAAAAAAAAAAAAAAAAAAAAAAAAAAAAAAAAAAAAAAAAAAAAAAAAAAAAAAAAAAAAAAAAAAAAAAAAAAAAAAAAAAAAAAAAAAAAAAAAAAAAAAAAAAAAAAAAAAAAAAAAAAAAAAAAAAAAAAAAAAAAAAAAAAAAAAAAAAAAAAAAAAAAAAAAAAAAAAAAAAAAAAAAAAAAAAAAAAAAAAAAAAAAAAAAAAAAAAAAAAAAAAAAAAAAAAAAAAAAAAAAAAAAAAAAAAAAAAAAAAAAAAAAAAAAAAAAAAAAAAAAAAAAAAAAAAAAAAAAAAAAAAAAAAAAAAAAAAAAAAAAAAAAAAAAAAAAAAAAAAAAAAAAAAAAAAAAAAAAAAAAAAAAAAAAAAAAAAAAAAAAAAAAAAAAAAAAAAAAAAAAAAAAAAAAAAAAAAAAAAAAAAAAAAAAAAAAAAAAAAAAAAAAAAAAAAAAAAAAAAAAAAAAAAAAAAAAAAAAAAAAAAAAAAAAAAAAAAAAAAAAAAAAAAAAAAAAAAAAAAAAAAAAAAAAAAAAAAAAAAAAAAAAAAAAAAAAAAAAAAAAAAAAAAAAAAAAAAAAAAAAAAAAAAAAAAAAAAAAAAAAAAAAAAAAAAAAAAAAAAAAAAAAAAAAAAAAAAAAAAAAAAAAAAAAAAAAAAAAAAAAAAAAAAAAAAAAAAAAAAAAAAAAAAAAAAAAAAAAAAAAAS/6xfQEA;imageBorder=default;" parent="1" vertex="1">
          <mxGeometry x="340" y="30" width="140" height="140" as="geometry" />
        </mxCell>
        <mxCell id="eEODXBK2ljjGyrrpDSJA-16" value="&lt;b&gt;Sinyal Seismik&lt;/b&gt;" style="text;html=1;align=center;verticalAlign=middle;whiteSpace=wrap;rounded=0;" parent="1" vertex="1">
          <mxGeometry x="414" y="175" width="60" height="30" as="geometry" />
        </mxCell>
        <mxCell id="eEODXBK2ljjGyrrpDSJA-17" value="&lt;b&gt;Model KNN + Random Search&lt;/b&gt;" style="text;html=1;align=center;verticalAlign=middle;whiteSpace=wrap;rounded=0;" parent="1" vertex="1">
          <mxGeometry x="447" y="314" width="181" height="30" as="geometry" />
        </mxCell>
        <mxCell id="eEODXBK2ljjGyrrpDSJA-19" style="edgeStyle=orthogonalEdgeStyle;rounded=0;orthogonalLoop=1;jettySize=auto;html=1;" parent="1" source="eEODXBK2ljjGyrrpDSJA-2" edge="1">
          <mxGeometry relative="1" as="geometry">
            <mxPoint x="370" y="299" as="targetPoint" />
            <Array as="points">
              <mxPoint x="370" y="299" />
            </Array>
          </mxGeometry>
        </mxCell>
        <mxCell id="eEODXBK2ljjGyrrpDSJA-20" value="&lt;b&gt;User&lt;/b&gt;" style="text;html=1;align=center;verticalAlign=middle;whiteSpace=wrap;rounded=0;" parent="1" vertex="1">
          <mxGeometry x="96" y="320" width="181" height="30" as="geometry" />
        </mxCell>
        <mxCell id="6sy1DItg2lmDuoTPemXm-8" value="" style="edgeStyle=orthogonalEdgeStyle;rounded=0;orthogonalLoop=1;jettySize=auto;html=1;" edge="1" parent="1" source="6sy1DItg2lmDuoTPemXm-1" target="6sy1DItg2lmDuoTPemXm-2">
          <mxGeometry relative="1" as="geometry" />
        </mxCell>
        <mxCell id="6sy1DItg2lmDuoTPemXm-1" value="Analisis Kebutuhan" style="rounded=0;whiteSpace=wrap;html=1;" vertex="1" parent="1">
          <mxGeometry x="74" y="595" width="80" height="60" as="geometry" />
        </mxCell>
        <mxCell id="6sy1DItg2lmDuoTPemXm-9" value="" style="edgeStyle=orthogonalEdgeStyle;rounded=0;orthogonalLoop=1;jettySize=auto;html=1;" edge="1" parent="1" source="6sy1DItg2lmDuoTPemXm-2" target="6sy1DItg2lmDuoTPemXm-3">
          <mxGeometry relative="1" as="geometry" />
        </mxCell>
        <mxCell id="6sy1DItg2lmDuoTPemXm-12" style="edgeStyle=orthogonalEdgeStyle;rounded=0;orthogonalLoop=1;jettySize=auto;html=1;entryX=0.5;entryY=0;entryDx=0;entryDy=0;dashed=1;" edge="1" parent="1" source="6sy1DItg2lmDuoTPemXm-2" target="6sy1DItg2lmDuoTPemXm-1">
          <mxGeometry relative="1" as="geometry">
            <Array as="points">
              <mxPoint x="246" y="575" />
              <mxPoint x="114" y="575" />
            </Array>
          </mxGeometry>
        </mxCell>
        <mxCell id="6sy1DItg2lmDuoTPemXm-2" value="Perancangan SIstem" style="rounded=0;whiteSpace=wrap;html=1;" vertex="1" parent="1">
          <mxGeometry x="195" y="595" width="83" height="60" as="geometry" />
        </mxCell>
        <mxCell id="6sy1DItg2lmDuoTPemXm-10" value="" style="edgeStyle=orthogonalEdgeStyle;rounded=0;orthogonalLoop=1;jettySize=auto;html=1;" edge="1" parent="1" source="6sy1DItg2lmDuoTPemXm-3" target="6sy1DItg2lmDuoTPemXm-6">
          <mxGeometry relative="1" as="geometry" />
        </mxCell>
        <mxCell id="6sy1DItg2lmDuoTPemXm-3" value="Implementasi" style="rounded=0;whiteSpace=wrap;html=1;" vertex="1" parent="1">
          <mxGeometry x="337" y="595" width="76" height="60" as="geometry" />
        </mxCell>
        <mxCell id="6sy1DItg2lmDuoTPemXm-11" value="" style="edgeStyle=orthogonalEdgeStyle;rounded=0;orthogonalLoop=1;jettySize=auto;html=1;" edge="1" parent="1" source="6sy1DItg2lmDuoTPemXm-6" target="6sy1DItg2lmDuoTPemXm-7">
          <mxGeometry relative="1" as="geometry" />
        </mxCell>
        <mxCell id="6sy1DItg2lmDuoTPemXm-6" value="Pengujian Sistem" style="rounded=0;whiteSpace=wrap;html=1;" vertex="1" parent="1">
          <mxGeometry x="455" y="595" width="94" height="60" as="geometry" />
        </mxCell>
        <mxCell id="6sy1DItg2lmDuoTPemXm-7" value="Maintanance" style="rounded=0;whiteSpace=wrap;html=1;" vertex="1" parent="1">
          <mxGeometry x="600" y="595" width="83" height="60" as="geometry" />
        </mxCell>
        <mxCell id="6sy1DItg2lmDuoTPemXm-13" style="edgeStyle=orthogonalEdgeStyle;rounded=0;orthogonalLoop=1;jettySize=auto;html=1;dashed=1;" edge="1" parent="1" source="6sy1DItg2lmDuoTPemXm-6" target="6sy1DItg2lmDuoTPemXm-3">
          <mxGeometry relative="1" as="geometry">
            <mxPoint x="642" y="595" as="sourcePoint" />
            <mxPoint x="441" y="595" as="targetPoint" />
            <Array as="points">
              <mxPoint x="498" y="575" />
              <mxPoint x="366" y="575" />
            </Array>
          </mxGeometry>
        </mxCell>
        <mxCell id="6sy1DItg2lmDuoTPemXm-14" style="edgeStyle=orthogonalEdgeStyle;rounded=0;orthogonalLoop=1;jettySize=auto;html=1;entryX=0.5;entryY=0;entryDx=0;entryDy=0;dashed=1;jumpStyle=arc;" edge="1" parent="1" source="6sy1DItg2lmDuoTPemXm-3">
          <mxGeometry relative="1" as="geometry">
            <mxPoint x="431" y="595" as="sourcePoint" />
            <mxPoint x="230" y="595" as="targetPoint" />
            <Array as="points">
              <mxPoint x="382" y="558" />
              <mxPoint x="230" y="558" />
            </Array>
          </mxGeometry>
        </mxCell>
        <mxCell id="6sy1DItg2lmDuoTPemXm-15" style="edgeStyle=orthogonalEdgeStyle;rounded=0;orthogonalLoop=1;jettySize=auto;html=1;entryX=0.5;entryY=0;entryDx=0;entryDy=0;dashed=1;jumpStyle=arc;" edge="1" parent="1">
          <mxGeometry relative="1" as="geometry">
            <mxPoint x="632" y="595" as="sourcePoint" />
            <mxPoint x="471" y="596.02" as="targetPoint" />
            <Array as="points">
              <mxPoint x="633" y="595" />
              <mxPoint x="633" y="562" />
              <mxPoint x="471" y="562" />
            </Array>
          </mxGeometry>
        </mxCell>
        <mxCell id="6sy1DItg2lmDuoTPemXm-16" value="Verifikasi" style="text;html=1;align=center;verticalAlign=middle;whiteSpace=wrap;rounded=0;" vertex="1" parent="1">
          <mxGeometry x="135" y="547" width="60" height="30" as="geometry" />
        </mxCell>
        <mxCell id="6sy1DItg2lmDuoTPemXm-17" value="Verifikasi" style="text;html=1;align=center;verticalAlign=middle;whiteSpace=wrap;rounded=0;" vertex="1" parent="1">
          <mxGeometry x="282" y="554" width="60" height="30" as="geometry" />
        </mxCell>
        <mxCell id="6sy1DItg2lmDuoTPemXm-18" value="Verifikasi" style="text;html=1;align=center;verticalAlign=middle;whiteSpace=wrap;rounded=0;" vertex="1" parent="1">
          <mxGeometry x="512" y="541" width="60" height="30" as="geometry" />
        </mxCell>
        <mxCell id="6sy1DItg2lmDuoTPemXm-19" value="Verifikasi" style="text;html=1;align=center;verticalAlign=middle;whiteSpace=wrap;rounded=0;" vertex="1" parent="1">
          <mxGeometry x="399" y="547" width="60" height="30" as="geometry" />
        </mxCell>
      </root>
    </mxGraphModel>
  </diagram>
</mxfile>
